<?xml version="1.0" encoding="UTF-8"?>
<svg width="300" height="100" viewBox="0 0 300 100" xmlns="http://www.w3.org/2000/svg">
  <!-- Background (optional subtle gradient) -->
  <defs>
    <linearGradient id="grad" x1="0%" y1="0%" x2="100%" y2="100%">
      <stop offset="0%" stop-color="#6C5CE7" />
      <stop offset="100%" stop-color="#A29BFE" />
    </linearGradient>
  </defs>

  <!-- Mirror "U" icon -->
  <path d="M30 20 
           C15 20, 5 30, 5 45 
           C5 60, 15 70, 30 70 
           L40 70 
           C55 70, 65 60, 65 45 
           C65 30, 55 20, 40 20 
           Z" fill="url(#grad)" />
  <path d="M35 35 L35 55 M45 35 L45 55" stroke="#FFF" stroke-width="3" stroke-linecap="round"/>

  <!-- Text -->
  <text x="80" y="60" font-family="Montserrat, sans-serif" font-weight="700" font-size="42" fill="#2D3436">
    uselfunik
  </text>

  <!-- Fun spark -->
  <path d="M230 30 L235 20 L240 30 L250 35 L240 40 L235 50 L230 40 L220 35 Z" fill="#FFD43B"/>
</svg>