<?xml version="1.0" encoding="UTF-8"?>
<svg width="64" height="64" viewBox="0 0 64 64" xmlns="http://www.w3.org/2000/svg">
  <defs>
    <filter id="shadow" x="-20%" y="-20%" width="140%" height="140%">
      <feDropShadow dx="1" dy="2" stdDeviation="1" flood-color="#FFFFFF" flood-opacity="0.3"/>
    </filter>
  </defs>
  
  <!-- Main U shape -->
  <path d="M18 16 
           L18 34
           C18 42, 24 48, 32 48
           C40 48, 46 42, 46 34
           L46 16
           M22 16 L22 34
           C22 39.5, 26.5 44, 32 44
           C37.5 44, 42 39.5, 42 34
           L42 16" 
        fill="none" 
        stroke="#FFFFFF" 
        stroke-width="4" 
        stroke-linecap="round" 
        stroke-linejoin="round"
        filter="url(#shadow)"/>
  
  <!-- Inner U details -->
  <path d="M26 18 L26 32 C26 36, 28.5 38.5, 32 38.5 C35.5 38.5, 38 36, 38 32 L38 18" 
        fill="none" 
        stroke="#FFFFFF" 
        stroke-width="2" 
        stroke-linecap="round" 
        opacity="0.7"/>
  
  <!-- Star -->
  <g transform="translate(32, 28)">
    <path d="M0 -6 L1.8 -1.8 L6 0 L1.8 1.8 L0 6 L-1.8 1.8 L-6 0 L-1.8 -1.8 Z" 
          fill="#FFFFFF" 
          filter="url(#shadow)"/>
    <path d="M0 -4 L1.2 -1.2 L4 0 L1.2 1.2 L0 4 L-1.2 1.2 L-4 0 L-1.2 -1.2 Z" 
          fill="#2D3436" 
          opacity="0.2"/>
    <circle cx="0" cy="0" r="1" fill="#2D3436" opacity="0.6"/>
  </g>
  
  <!-- Highlight -->
  <path d="M20 18 L20 30 C20 36, 24.5 40.5, 30 40.5" 
        fill="none" 
        stroke="#74B9FF" 
        stroke-width="1.5" 
        stroke-linecap="round" 
        opacity="0.6"/>
</svg>